HIERARCHY
ROOT hip
{
	OFFSET 0.000000 0.000000 0.000000 
	CHANNELS 6 Xposition Yposition Zposition Xrotation Zrotation Yrotation
	JOINT abdomen
	{
		OFFSET 0.000000 3.402643 0.000000 
		CHANNELS 3 Xrotation Zrotation Yrotation
		JOINT chest
		{
			OFFSET 0.000000 8.438565 -0.680529 
			CHANNELS 3 Xrotation Zrotation Yrotation
			JOINT neck
			{
				OFFSET 0.000000 10.207942 -0.272212 
				CHANNELS 3 Xrotation Zrotation Yrotation
				JOINT head
				{
					OFFSET 0.000000 3.130431 0.000000 
					CHANNELS 3 Xrotation Zrotation Yrotation
					End Site
					{
						OFFSET 0.000000 3.130435 0.000000 
					}
				}
			}
			JOINT lCollar
			{
				OFFSET 3.470700 6.669187 -0.816635 
				CHANNELS 3 Yrotation Zrotation Xrotation
				JOINT lShldr
				{
					OFFSET 3.198488 0.000000 0.000000 
					CHANNELS 3 Zrotation Yrotation Xrotation
					JOINT lForeArm
					{
						OFFSET 10.139888 0.000000 0.000000 
						CHANNELS 3 Yrotation Zrotation Xrotation
						JOINT lHand
						{
							OFFSET 8.370511 0.000000 0.000000 
							CHANNELS 3 Zrotation Yrotation Xrotation
							End Site
							{
								OFFSET 4.083176 0.000000 0.000000 
							}
						}
					}
				}
			}
			JOINT rCollar
			{
				OFFSET -3.470700 6.669187 -0.816635 
				CHANNELS 3 Yrotation Zrotation Xrotation
				JOINT rShldr
				{
					OFFSET -3.198488 0.000000 0.000000 
					CHANNELS 3 Zrotation Yrotation Xrotation
					JOINT rForeArm
					{
						OFFSET -10.139888 0.000000 0.000000 
						CHANNELS 3 Yrotation Zrotation Xrotation
						JOINT rHand
						{
							OFFSET -8.370511 0.000000 0.000000 
							CHANNELS 3 Zrotation Yrotation Xrotation
							End Site
							{
								OFFSET -4.083176 0.000000 0.000000 
							}
						}
					}
				}
			}
		}
	}
	JOINT lThigh
	{
		OFFSET 5.308129 -1.633274 1.361059 
		CHANNELS 3 Xrotation Zrotation Yrotation
		JOINT lShin
		{
			OFFSET -2.041588 -20.007561 0.000000 
			CHANNELS 3 Xrotation Zrotation Yrotation
			JOINT lFoot
			{
				OFFSET 0.000000 -19.190928 -1.224953 
				CHANNELS 3 Xrotation Yrotation Zrotation
				End Site
				{
					OFFSET 0.000000 -2.449906 4.627600 
				}
			}
		}
	}
	JOINT rThigh
	{
		OFFSET -5.308129 -1.633274 1.361059 
		CHANNELS 3 Xrotation Zrotation Yrotation
		JOINT rShin
		{
			OFFSET 2.041588 -20.007561 0.000000 
			CHANNELS 3 Xrotation Zrotation Yrotation
			JOINT rFoot
			{
				OFFSET 0.000000 -19.190928 -1.224953 
				CHANNELS 3 Xrotation Yrotation Zrotation
				End Site
				{
					OFFSET 0.000000 -2.449906 4.627600 
				}
			}
		}
	}
}
MOTION
Frames: 11
Frame Time: 0.011111
72.205032 51.714401 7.728657 -1.712877 7.731365 -94.156723 14.915639 -5.855432 1.788206 -33.383114 5.659987 0.397991 -12.039907 -13.031071 -2.429670 11.114086 24.407576 -7.508469 -10.275489 -5.709454 -1.550532 -80.770866 -15.862402 -9.468449 -59.015888 9.181338 11.958259 8.524705 12.647240 -61.243546 5.831508 6.350754 -0.460990 74.138481 17.368177 -14.286967 54.301342 -8.564613 9.935632 -8.534408 -12.637552 31.615091 -12.497594 3.993086 0.642195 33.025249 -5.157564 -5.242770 -31.160023 -8.993891 -6.927355 -11.314024 -7.506702 -3.486914 27.073334 5.467511 4.430650 -30.313063 -2.805925 0.108253 
72.201317 51.735672 7.733722 -1.687639 7.790900 -94.154694 14.807799 -5.984405 2.047822 -33.350891 5.494966 0.485490 -11.306714 -13.103708 -3.027827 10.096510 24.411680 -8.757742 -10.275489 -5.709454 -1.550532 -80.535355 -15.437843 -8.279849 -59.463497 9.225853 12.165828 8.524705 12.647240 -60.540421 5.831508 6.350754 -0.460990 74.414268 17.419474 -15.467401 53.752953 -8.469644 9.700562 -8.534408 -12.637552 33.079933 -12.528571 4.003372 0.603907 32.956028 -5.157579 -5.236696 -31.251451 -8.900834 -6.870706 -11.467683 -7.504821 -3.487286 27.132771 5.467758 4.445659 -30.298149 -2.735709 0.148209 
72.202675 51.742756 7.733722 -1.627725 7.803026 -94.140160 14.776404 -5.986139 2.130518 -33.329624 5.391593 0.523866 -10.912658 -13.017781 -3.455524 9.547409 24.016636 -9.610250 -10.275489 -5.709454 -1.550532 -80.440727 -15.090627 -7.500750 -59.985058 9.269994 12.399677 8.524705 12.647240 -59.847054 5.831508 6.350754 -0.460990 74.551880 17.563137 -16.561890 53.068645 -8.347905 9.423720 -8.534408 -12.637552 34.349464 -12.575045 4.061239 0.563658 32.986008 -5.157701 -5.229641 -31.291016 -8.909984 -6.870527 -11.469875 -7.447830 -3.489648 27.092623 5.467519 4.451817 -30.289581 -2.717727 0.161570 
72.209419 51.740395 7.732371 -1.548247 7.815639 -94.140366 14.821264 -5.896825 2.168104 -33.327347 5.235685 0.537874 -10.952957 -12.701944 -3.653409 9.572447 23.371239 -9.937655 -10.275489 -5.709454 -1.550532 -80.345612 -15.121914 -7.714636 -60.070156 9.276287 12.436065 8.524705 12.647240 -59.807991 5.831508 6.350754 -0.460990 74.678406 17.794071 -17.698414 52.353657 -8.210179 9.121593 -8.534408 -12.637552 35.658062 -12.609519 4.147327 0.550723 33.007839 -5.132889 -5.264240 -31.276257 -8.882527 -6.871014 -11.444507 -7.362761 -3.483310 27.082977 5.467515 4.441233 -30.277061 -2.760633 0.142262 
72.219887 51.738365 7.732033 -1.504918 7.817051 -94.151558 14.886873 -5.810630 2.173032 -33.296684 5.147061 0.544162 -11.155101 -12.378631 -3.563174 9.696669 22.835676 -9.698042 -10.275489 -5.709454 -1.550532 -80.310852 -15.005564 -7.648605 -60.261898 9.290984 12.518290 8.524705 12.647240 -59.856827 5.831508 6.350754 -0.460990 74.619270 18.259436 -19.982098 51.263180 -7.990615 8.678548 -8.534408 -12.637552 38.226418 -12.658615 4.196252 0.511073 33.047489 -5.132261 -5.267405 -31.297840 -8.883831 -6.862606 -11.442101 -7.302591 -3.436174 27.038807 5.492483 4.432676 -30.323500 -2.793544 0.105403 
72.227654 51.738033 7.728996 -1.503212 7.855484 -94.204056 14.895349 -5.757011 2.156763 -33.217999 5.124081 0.534781 -11.640039 -12.082060 -3.173198 10.179667 22.466055 -8.866227 -10.275489 -5.709454 -1.550532 -80.332359 -14.571439 -6.966601 -60.751610 9.324751 12.733033 8.524705 12.647240 -59.827526 5.831508 6.350754 -0.460990 74.735909 18.489254 -20.320938 51.179283 -7.971447 8.638076 -8.534408 -12.637552 37.718609 -12.736554 4.206262 0.523082 33.075783 -5.147220 -5.253846 -31.308020 -8.851766 -6.840065 -11.492888 -7.284292 -3.398269 27.001244 5.478220 4.435748 -30.368984 -2.845954 0.077972 
72.228668 51.745796 7.723594 -1.505781 7.913031 -94.278908 14.864244 -5.689287 2.168800 -33.178520 5.102948 0.531523 -12.042780 -11.629062 -2.667037 10.483391 21.998652 -7.743515 -10.275489 -5.709454 -1.550532 -80.355629 -14.316986 -6.679792 -60.912106 9.337091 12.805026 8.524705 12.647240 -59.983780 5.831508 6.350754 -0.460990 74.855278 18.621031 -20.513538 51.178024 -7.965936 8.640284 -8.534408 -12.637552 37.562359 -12.816450 4.236088 0.553844 33.115311 -5.147351 -5.258230 -31.343571 -8.841238 -6.825431 -11.569207 -7.263643 -3.350333 26.991283 5.478171 4.434862 -30.417288 -2.852214 0.060340 
72.227982 51.752888 7.722579 -1.525452 7.931065 -94.337379 14.853752 -5.642948 2.183160 -33.129501 5.102493 0.535866 -12.139339 -11.074636 -2.160457 10.411214 21.450327 -6.575407 -10.275489 -5.709454 -1.550532 -80.389977 -14.293788 -6.729798 -60.751610 9.324751 12.733033 8.524705 12.647240 -60.198616 5.831508 6.350754 -0.460990 74.946220 18.670849 -20.529221 51.230869 -7.979010 8.660648 -8.534408 -12.637552 37.708843 -12.857325 4.236641 0.555374 33.115314 -5.147349 -5.258230 -31.390310 -8.818062 -6.825863 -11.625192 -7.271591 -3.320696 27.003260 5.467365 4.434209 -30.479483 -2.798007 0.074313 
72.232719 51.749172 7.724607 -1.586161 7.975793 -94.470367 14.815326 -5.688026 2.276866 -33.119793 5.116397 0.564264 -12.439835 -10.349304 -1.737897 10.882198 20.517490 -5.511353 -10.275489 -5.709454 -1.550532 -80.425850 -14.310730 -6.799733 -60.527660 9.309064 12.638556 8.524705 12.647240 -60.432995 5.831508 6.350754 -0.460990 75.005005 18.667772 -20.423473 51.283718 -7.992023 8.679692 -8.534408 -12.637552 37.952984 -12.855682 4.167626 0.597692 33.116699 -5.132242 -5.273462 -31.433914 -8.701811 -6.767561 -11.732402 -7.330091 -3.270190 27.019196 5.492424 4.421203 -30.419893 -2.656991 0.143961 
72.242851 51.743095 7.726970 -1.624286 8.021499 -94.588165 14.824815 -5.705596 2.412192 -33.138939 5.093417 0.605497 -12.874382 -9.641208 -1.428080 11.554948 19.532568 -4.684690 -10.275489 -5.709454 -1.550532 -80.417908 -14.349027 -6.948639 -60.166111 9.283443 12.473056 8.524705 12.647240 -60.696667 5.831508 6.350754 -0.460990 75.076225 18.567764 -20.177887 51.450657 -8.023158 8.742245 -8.534408 -12.637552 38.363140 -12.888260 4.129907 0.600966 33.075783 -5.147221 -5.253846 -31.441061 -8.617380 -6.694527 -11.820855 -7.359807 -3.240276 27.029156 5.492474 4.422090 -30.322981 -2.483442 0.260320 
72.247902 51.737694 7.718530 -1.592375 7.887270 -94.498123 15.039130 -5.652139 2.403161 -33.128593 5.054686 0.612151 -13.256858 -9.239117 -1.229710 12.006117 19.009123 -4.169538 -10.275489 -5.709454 -1.550532 -80.390091 -14.483065 -7.278217 -59.739170 9.246249 12.284620 8.524705 12.647240 -61.106819 5.831508 6.350754 -0.460990 75.165718 18.400999 -19.783009 51.681007 -8.070918 8.844731 -8.534408 -12.637552 38.900249 -12.758900 4.158258 0.565485 33.075340 -5.147939 -5.263867 -31.484150 -8.676362 -6.742757 -11.659717 -7.333721 -3.280139 27.041082 5.478419 4.440224 -30.432940 -2.445376 0.285342 
